<svg xmlns="http://www.w3.org/2000/svg" viewBox="0 0 64 64">
  <rect width="64" height="64" rx="8" fill="#f8f5ee"/>
  <path d="M27.8 10.7c7.6 1.2 14 6.1 17.2 12.7l-8.4 4.1a16.2 16.2 0 0 0-15-7.8l-.7-9.3c2.2-.2 4.5-.1 6.9.3Z" fill="#0d3a52"/>
  <path d="M13.7 18.6a24 24 0 0 1 8.8-6.7l4 8.5a14.9 14.9 0 0 0-5.4 4.1l-7.4-5.9Z" fill="#0d3a52"/>
  <path d="M8.3 30.4c.3-2.7 1-5.2 2.1-7.6l8.5 4a15.4 15.4 0 0 0-1.2 5.1l-9.4-1.5Z" fill="#0d3a52"/>
  <path d="M10.8 45.1a24.7 24.7 0 0 1-2.6-9.3l9.3-.8a14.8 14.8 0 0 0 1.6 5.8l-8.3 4.3Z" fill="#0d3a52"/>
  <path d="M23.8 55.8a24.2 24.2 0 0 1-9.3-5.9l6.6-6.6a15 15 0 0 0 5.7 3.6l-3 8.9Z" fill="#0d3a52"/>
  <path d="M40.6 51.8a23.8 23.8 0 0 1-10.7 4.3l-1.3-9.2a15 15 0 0 0 6.5-2.7l5.5 7.6Z" fill="#0d3a52"/>
  <path d="M35.3 54.2 44 12.8l11.9 5.9-6.9 3.5-8.9 35.1-4.8-3.1Z" fill="#e6a72c"/>
  <path d="M39.8 57.4 49 22.1l-6.8 1.2 14.5-12.7-1.8 19.2-4.4-5.3-8.9 35.1-1.8-2.2Z" fill="#c9922a"/>
</svg>
